<svg width="12" height="13" viewBox="0 0 12 13" fill="none" xmlns="http://www.w3.org/2000/svg">
<path d="M7.91146 9.36827L8.72687 8.55286L6.57185 6.39784V3.71863H5.40698V6.86379L7.91146 9.36827ZM5.98941 12.4552C5.18371 12.4552 4.42654 12.3022 3.71791 11.9962C3.00928 11.6903 2.39286 11.2754 1.86867 10.7516C1.34448 10.2278 0.929586 9.61134 0.624 8.90232C0.318415 8.1933 0.165428 7.43613 0.16504 6.63082C0.164652 5.8255 0.317638 5.06833 0.624 4.35931C0.930362 3.65029 1.34525 3.03388 1.86867 2.51007C2.39209 1.98627 3.0085 1.57138 3.71791 1.2654C4.42732 0.959429 5.18448 0.806442 5.98941 0.806442C6.79434 0.806442 7.55151 0.959429 8.26092 1.2654C8.97033 1.57138 9.58674 1.98627 10.1102 2.51007C10.6336 3.03388 11.0487 3.65029 11.3554 4.35931C11.6622 5.06833 11.815 5.8255 11.8138 6.63082C11.8126 7.43613 11.6596 8.1933 11.3548 8.90232C11.05 9.61134 10.6351 10.2278 10.1102 10.7516C9.58519 11.2754 8.96877 11.6904 8.26092 11.9968C7.55306 12.3032 6.79589 12.456 5.98941 12.4552ZM5.98941 11.2903C7.28048 11.2903 8.37993 10.8366 9.28775 9.92916C10.1956 9.02172 10.6493 7.92227 10.6489 6.63082C10.6485 5.33936 10.1948 4.23991 9.28775 3.33247C8.38071 2.42504 7.28126 1.97132 5.98941 1.97132C4.69757 1.97132 3.59812 2.42523 2.69107 3.33306C1.78402 4.24088 1.3303 5.34013 1.32991 6.63082C1.32953 7.9215 1.78344 9.02094 2.69165 9.92916C3.59987 10.8374 4.69912 11.2911 5.98941 11.2903Z" fill="#C2C2C2"/>
</svg>
